<svg xmlns="http://www.w3.org/2000/svg" width="328" height="677" fill="none" viewBox="0 0 328 677"><path fill="#3F3D56" d="M117.696 231.617C122.453 146.909 132.038 89.6923 132.135 89.1243L130.055 88.772C129.959 89.3406 120.356 146.649 115.591 231.466C111.194 309.746 110.133 428.151 130.054 547.68L132.135 547.334C112.248 428.007 113.306 309.783 117.696 231.617Z"/><path fill="#3F3D56" d="M203.812 190.134L117.581 236.288L118.576 238.148L204.808 191.994L203.812 190.134Z"/><path fill="#2F2E41" d="M139.696 498.763C139.696 498.763 139.696 594.225 117.787 619.264C117.787 619.264 113.092 631.784 111.527 636.479C110.652 639.151 109.606 641.765 108.397 644.303V650.563C108.397 650.563 66.1433 645.868 61.4485 634.914L69.2732 625.524C69.2732 625.524 70.8382 623.959 69.2732 619.264C67.7083 614.569 72.4031 614.569 72.4031 614.569L83.3578 589.53L81.7928 486.244L89.6176 343.833L156.91 340.703L139.696 498.763Z"/><path fill="#2F2E41" d="M105.267 641.174C105.267 641.174 116.222 674.037 105.267 675.602C94.3125 677.167 -1.14944 678.732 0.415512 666.213C1.98046 653.693 33.2794 655.258 33.2794 655.258L66.1434 634.914L105.267 641.174Z"/><path fill="#2F2E41" d="M202.294 343.833C202.294 343.833 205.424 364.178 192.904 386.087C180.385 407.996 188.209 481.549 188.209 481.549L299.321 578.576C299.321 578.576 277.411 616.134 269.587 614.569C261.762 613.004 138.131 512.848 138.131 512.848L89.6176 350.093L202.294 343.833Z"/><path fill="#2F2E41" d="M297.794 574.429C297.794 574.429 331.416 582.77 326.874 592.86C322.331 602.951 272.547 684.419 262.811 676.395C253.074 668.37 271.152 642.772 271.152 642.772L271.562 604.123L297.794 574.429Z"/><path fill="#A0616A" d="M177.255 52.7552C177.267 60.9998 174.433 68.9958 169.231 75.3921C165.118 80.4898 159.688 84.3652 153.531 86.5985C147.373 88.8319 140.722 89.3383 134.297 88.0627C131.08 87.4409 127.966 86.3696 125.048 84.8801C120.413 82.5439 116.339 79.2323 113.104 75.1727C109.87 71.1131 107.552 66.4016 106.311 61.3617C105.612 58.5465 105.26 55.6561 105.265 52.7552C105.265 43.2089 109.057 34.0535 115.808 27.3031C122.558 20.5528 131.714 16.7605 141.26 16.7605C150.806 16.7605 159.962 20.5528 166.712 27.3031C173.462 34.0535 177.255 43.2089 177.255 52.7552Z"/><path fill="#A0616A" d="M169.582 65.4525L167.99 111.77L137.703 123.736C137.703 123.736 134.733 76.3104 130.541 73.6811C126.348 71.0519 169.582 65.4525 169.582 65.4525Z"/><path fill="#575A89" d="M130.306 129.435C130.306 129.435 172.56 87.1815 183.515 88.7465C194.469 90.3114 194.469 95.0063 194.469 98.1362C194.469 101.266 191.339 102.831 194.469 104.396C197.599 105.961 200.729 104.396 200.729 109.091C200.729 113.786 228.898 160.734 219.508 212.377C210.119 264.021 199.164 289.06 203.859 317.229C208.554 345.398 205.424 351.658 205.424 351.658C205.424 351.658 88.0526 361.048 86.4877 350.093C84.9228 339.138 91.1825 345.398 83.3578 337.573C75.533 329.749 78.6629 329.749 78.6629 325.054C78.6629 320.359 113.092 129.435 130.306 129.435Z"/><path fill="#A0616A" d="M152.216 342.268C152.216 342.268 133.436 387.652 119.352 376.697C105.267 365.742 125.611 328.184 125.611 328.184L152.216 342.268Z"/><path fill="#575A89" d="M197.599 132.565C197.599 132.565 234.368 136.775 220.678 204.31C206.989 271.846 153.78 350.093 153.78 350.093L117.787 332.879L164.735 240.547L153.78 182.643C153.78 182.643 147.521 127.87 197.599 132.565Z"/><path fill="#000" d="M165.518 241.329L113.874 327.401L118.569 332.096L165.518 241.329Z" opacity=".2"/><path fill="#000" d="M192.853 281.439L151.433 349.31H165.518L192.853 281.439Z" opacity=".2"/><path fill="#000" d="M99.2898 404.78L97.2092 405.574L138.391 513.549L140.471 512.755L99.2898 404.78Z" opacity=".2"/><path fill="#D0CDE1" d="M130.528 138.028C131.758 138.028 132.754 137.031 132.754 135.801C132.754 134.572 131.758 133.575 130.528 133.575C129.298 133.575 128.302 134.572 128.302 135.801C128.302 137.031 129.298 138.028 130.528 138.028Z"/><path fill="#D0CDE1" d="M111.605 198.136C111.843 198.136 112.074 198.06 112.266 197.919C112.457 197.778 112.598 197.579 112.668 197.352L131.591 136.13C131.635 135.99 131.65 135.844 131.637 135.698C131.624 135.552 131.582 135.41 131.514 135.281C131.445 135.152 131.352 135.037 131.24 134.943C131.127 134.85 130.997 134.779 130.858 134.736C130.718 134.693 130.571 134.678 130.425 134.691C130.28 134.705 130.138 134.747 130.009 134.816C129.879 134.884 129.765 134.977 129.671 135.09C129.578 135.203 129.508 135.333 129.465 135.473L110.542 196.695C110.491 196.861 110.479 197.038 110.508 197.209C110.538 197.381 110.607 197.543 110.71 197.684C110.814 197.824 110.948 197.938 111.104 198.016C111.259 198.095 111.431 198.136 111.605 198.136V198.136Z"/><path fill="#1AFFD6" d="M134.043 80.3229L125.048 88.8801C115.784 84.2183 106.836 71.6567 104.311 61.3618L116.113 56.416C116.883 66.9162 124.337 73.897 134.043 80.3229Z"/><path fill="#fff" d="M136.286 60.8986C136.25 60.8987 136.215 60.8962 136.179 60.8913L115.261 57.9029C115.164 57.8891 115.07 57.8563 114.986 57.8064C114.901 57.7565 114.827 57.6904 114.768 57.6119C114.71 57.5335 114.667 57.4442 114.642 57.3491C114.618 57.2541 114.612 57.1552 114.626 57.058C114.64 56.9609 114.673 56.8674 114.723 56.7829C114.773 56.6985 114.839 56.6246 114.917 56.5657C114.996 56.5068 115.085 56.4638 115.18 56.4394C115.275 56.415 115.374 56.4095 115.471 56.4233L136.389 59.4117C136.577 59.4382 136.747 59.5346 136.865 59.6815C136.984 59.8284 137.043 60.0149 137.03 60.2033C137.017 60.3918 136.933 60.5684 136.795 60.6974C136.657 60.8264 136.475 60.8982 136.286 60.8986Z"/><path fill="#fff" d="M133.296 80.3229C133.165 80.323 133.037 80.2889 132.924 80.2241C132.811 80.1592 132.717 80.0658 132.651 79.9531C132.585 79.8405 132.55 79.7126 132.549 79.5821C132.548 79.4516 132.581 79.3232 132.645 79.2095L139.576 66.8709C139.624 66.7851 139.688 66.7096 139.766 66.6488C139.843 66.5879 139.931 66.5429 140.026 66.5163C140.12 66.4897 140.219 66.482 140.317 66.4937C140.414 66.5053 140.509 66.5362 140.594 66.5843C140.68 66.6325 140.755 66.6972 140.816 66.7745C140.876 66.8518 140.921 66.9404 140.948 67.035C140.974 67.1297 140.981 67.2286 140.969 67.3262C140.957 67.4237 140.926 67.5179 140.878 67.6034L133.947 79.942C133.882 80.0576 133.787 80.1539 133.673 80.2208C133.559 80.2878 133.428 80.323 133.296 80.3229Z"/><path fill="#2F2E41" d="M157.552 74.3811C154.638 72.8405 151.253 72.5228 148.099 71.5652C136.815 68.1391 129.256 55.3831 131.67 43.84C132.116 42.3595 132.316 40.8158 132.262 39.2705C131.84 35.8518 128.342 33.6459 124.988 32.8626C121.633 32.0793 118.064 32.1931 114.858 30.9335C109.908 28.9886 106.62 23.9013 105.907 18.6307C105.194 13.3601 106.758 7.98458 109.302 3.31371L110.513 6.80032C112.361 5.23607 113.733 3.18454 114.472 0.879151C115.849 1.11055 117.144 1.69159 118.232 2.56662C119.32 3.44165 120.165 4.58136 120.687 5.87665C122.632 7.0235 122.912 2.31373 125.06 1.61893C125.96 1.32799 126.885 1.88067 127.742 2.2803C132.07 4.2993 137.1 2.57306 141.743 1.45392C149.784 -0.474856 158.166 -0.484723 166.212 1.42511C171.557 2.70002 176.848 4.92011 180.672 8.86552C183.813 12.1057 185.771 16.2956 187.437 20.4895C191.539 30.8136 194.249 41.9846 192.895 53.011C191.767 62.0341 187.992 70.5211 182.047 77.4012C178.949 80.9699 168.844 93.42 163.303 91.2974C156.34 88.6303 165.756 78.7185 157.552 74.3811Z"/></svg>